<mxfile host="app.diagrams.net" agent="Mozilla/5.0 (Windows NT 10.0; Win64; x64) AppleWebKit/537.36 (KHTML, like Gecko) Chrome/138.0.0.0 Safari/537.36 Edg/138.0.0.0" version="27.2.0">
  <diagram name="Page-1" id="hcXdrbjjytluaacFKWxP">
    <mxGraphModel dx="1418" dy="1997" grid="1" gridSize="10" guides="1" tooltips="1" connect="1" arrows="1" fold="1" page="1" pageScale="1" pageWidth="827" pageHeight="1169" math="0" shadow="0">
      <root>
        <mxCell id="0" />
        <mxCell id="1" parent="0" />
        <mxCell id="3Br_ud49PPdMieKtLJ-I-1" value="&lt;div&gt;&lt;div&gt;&lt;div&gt;&lt;br&gt;&lt;/div&gt;&lt;/div&gt;&lt;/div&gt;" style="rounded=0;whiteSpace=wrap;html=1;fillColor=light-dark(#bac8d3, #4b2d08);strokeColor=default;gradientColor=none;" vertex="1" parent="1">
          <mxGeometry x="160" y="90" width="680" height="370" as="geometry" />
        </mxCell>
        <mxCell id="3Br_ud49PPdMieKtLJ-I-2" value="&lt;h1 style=&quot;margin-top: 0px;&quot;&gt;&lt;span style=&quot;background-color: transparent; color: light-dark(rgb(0, 0, 0), rgb(255, 255, 255));&quot;&gt;[Code] benchmark_data&lt;/span&gt;&lt;/h1&gt;&lt;h1 style=&quot;margin-top: 0px;&quot;&gt;&lt;span style=&quot;background-color: transparent; color: light-dark(rgb(0, 0, 0), rgb(255, 255, 255)); font-size: 12px; font-weight: normal;&quot;&gt;Lorem ipsum dolor sit amet, consectetur adipisicing elit, sed do eiusmod tempor incididunt ut labore et dolore magna aliqua.&lt;/span&gt;&lt;/h1&gt;" style="text;html=1;whiteSpace=wrap;overflow=hidden;rounded=0;" vertex="1" parent="1">
          <mxGeometry x="180" y="110" width="310" height="120" as="geometry" />
        </mxCell>
        <mxCell id="3Br_ud49PPdMieKtLJ-I-31" style="edgeStyle=orthogonalEdgeStyle;rounded=0;orthogonalLoop=1;jettySize=auto;html=1;" edge="1" parent="1" source="3Br_ud49PPdMieKtLJ-I-3" target="3Br_ud49PPdMieKtLJ-I-25">
          <mxGeometry relative="1" as="geometry" />
        </mxCell>
        <mxCell id="3Br_ud49PPdMieKtLJ-I-3" value="&lt;b&gt;create(fund)&lt;/b&gt;" style="rounded=0;whiteSpace=wrap;html=1;" vertex="1" parent="1">
          <mxGeometry x="640" y="140" width="150" height="30" as="geometry" />
        </mxCell>
        <mxCell id="3Br_ud49PPdMieKtLJ-I-6" value="" style="group" vertex="1" connectable="0" parent="1">
          <mxGeometry x="635" y="-20" width="160" height="75" as="geometry" />
        </mxCell>
        <mxCell id="3Br_ud49PPdMieKtLJ-I-7" value="&lt;div&gt;&lt;div&gt;&lt;div&gt;&lt;br&gt;&lt;/div&gt;&lt;/div&gt;&lt;/div&gt;" style="rounded=0;whiteSpace=wrap;html=1;fillColor=light-dark(#b0e3e6, #182e44);strokeColor=#36393d;" vertex="1" parent="3Br_ud49PPdMieKtLJ-I-6">
          <mxGeometry width="160" height="75" as="geometry" />
        </mxCell>
        <mxCell id="3Br_ud49PPdMieKtLJ-I-8" value="&lt;b&gt;__init__()&lt;/b&gt;" style="rounded=0;whiteSpace=wrap;html=1;" vertex="1" parent="3Br_ud49PPdMieKtLJ-I-6">
          <mxGeometry x="9.41176470588232" y="30" width="141.1764705882353" height="30" as="geometry" />
        </mxCell>
        <mxCell id="3Br_ud49PPdMieKtLJ-I-9" value="&lt;b&gt;fund_data&lt;/b&gt;" style="text;html=1;align=center;verticalAlign=middle;whiteSpace=wrap;rounded=0;" vertex="1" parent="3Br_ud49PPdMieKtLJ-I-6">
          <mxGeometry x="51.76470588235293" width="56.470588235294116" height="30" as="geometry" />
        </mxCell>
        <mxCell id="3Br_ud49PPdMieKtLJ-I-10" style="edgeStyle=orthogonalEdgeStyle;rounded=0;orthogonalLoop=1;jettySize=auto;html=1;" edge="1" parent="1" source="3Br_ud49PPdMieKtLJ-I-8" target="3Br_ud49PPdMieKtLJ-I-3">
          <mxGeometry relative="1" as="geometry" />
        </mxCell>
        <mxCell id="3Br_ud49PPdMieKtLJ-I-15" value="&lt;b&gt;__init__()&lt;/b&gt;" style="rounded=0;whiteSpace=wrap;html=1;" vertex="1" parent="1">
          <mxGeometry x="640" y="390" width="150" height="30" as="geometry" />
        </mxCell>
        <mxCell id="3Br_ud49PPdMieKtLJ-I-24" style="edgeStyle=orthogonalEdgeStyle;rounded=0;orthogonalLoop=1;jettySize=auto;html=1;entryX=1;entryY=0.5;entryDx=0;entryDy=0;" edge="1" parent="1" source="3Br_ud49PPdMieKtLJ-I-16" target="3Br_ud49PPdMieKtLJ-I-23">
          <mxGeometry relative="1" as="geometry" />
        </mxCell>
        <mxCell id="3Br_ud49PPdMieKtLJ-I-35" style="edgeStyle=orthogonalEdgeStyle;rounded=0;orthogonalLoop=1;jettySize=auto;html=1;entryX=0.5;entryY=0;entryDx=0;entryDy=0;" edge="1" parent="1" source="3Br_ud49PPdMieKtLJ-I-16" target="3Br_ud49PPdMieKtLJ-I-15">
          <mxGeometry relative="1" as="geometry" />
        </mxCell>
        <mxCell id="3Br_ud49PPdMieKtLJ-I-16" value="&lt;font style=&quot;font-size: 10px;&quot;&gt;&lt;b&gt;Historique de prix disponible ?&amp;nbsp;&lt;/b&gt;&lt;/font&gt;" style="strokeWidth=2;html=1;shape=mxgraph.flowchart.decision;whiteSpace=wrap;" vertex="1" parent="1">
          <mxGeometry x="665" y="260" width="100" height="100" as="geometry" />
        </mxCell>
        <mxCell id="3Br_ud49PPdMieKtLJ-I-23" value="Renvoie None" style="shape=parallelogram;perimeter=parallelogramPerimeter;whiteSpace=wrap;html=1;fixedSize=1;" vertex="1" parent="1">
          <mxGeometry x="490" y="290" width="140" height="40" as="geometry" />
        </mxCell>
        <mxCell id="3Br_ud49PPdMieKtLJ-I-32" style="edgeStyle=orthogonalEdgeStyle;rounded=0;orthogonalLoop=1;jettySize=auto;html=1;" edge="1" parent="1" source="3Br_ud49PPdMieKtLJ-I-25" target="3Br_ud49PPdMieKtLJ-I-16">
          <mxGeometry relative="1" as="geometry" />
        </mxCell>
        <mxCell id="3Br_ud49PPdMieKtLJ-I-48" style="edgeStyle=orthogonalEdgeStyle;rounded=0;orthogonalLoop=1;jettySize=auto;html=1;entryX=1;entryY=0.5;entryDx=0;entryDy=0;" edge="1" parent="1" source="3Br_ud49PPdMieKtLJ-I-25" target="3Br_ud49PPdMieKtLJ-I-47">
          <mxGeometry relative="1" as="geometry">
            <Array as="points">
              <mxPoint x="490" y="215" />
              <mxPoint x="490" y="285" />
            </Array>
          </mxGeometry>
        </mxCell>
        <mxCell id="3Br_ud49PPdMieKtLJ-I-25" value="&lt;b&gt;get_benchamark_price()&lt;/b&gt;" style="rounded=0;whiteSpace=wrap;html=1;" vertex="1" parent="1">
          <mxGeometry x="640" y="200" width="150" height="30" as="geometry" />
        </mxCell>
        <mxCell id="3Br_ud49PPdMieKtLJ-I-26" value="&lt;b&gt;get_benchmark_composition()&lt;/b&gt;" style="rounded=0;whiteSpace=wrap;html=1;" vertex="1" parent="1">
          <mxGeometry x="390" y="370" width="190" height="30" as="geometry" />
        </mxCell>
        <mxCell id="3Br_ud49PPdMieKtLJ-I-46" style="edgeStyle=orthogonalEdgeStyle;rounded=0;orthogonalLoop=1;jettySize=auto;html=1;entryX=0;entryY=0.5;entryDx=0;entryDy=0;" edge="1" parent="1" source="3Br_ud49PPdMieKtLJ-I-33" target="3Br_ud49PPdMieKtLJ-I-43">
          <mxGeometry relative="1" as="geometry">
            <mxPoint x="560" y="570" as="targetPoint" />
            <Array as="points">
              <mxPoint x="485" y="546" />
            </Array>
          </mxGeometry>
        </mxCell>
        <mxCell id="3Br_ud49PPdMieKtLJ-I-33" value="&lt;b&gt;update_metrics()&lt;/b&gt;" style="rounded=0;whiteSpace=wrap;html=1;" vertex="1" parent="1">
          <mxGeometry x="390" y="410" width="190" height="30" as="geometry" />
        </mxCell>
        <mxCell id="3Br_ud49PPdMieKtLJ-I-36" value="" style="shape=curlyBracket;whiteSpace=wrap;html=1;rounded=1;labelPosition=left;verticalLabelPosition=middle;align=right;verticalAlign=middle;flipV=1;flipH=1;" vertex="1" parent="1">
          <mxGeometry x="590" y="370" width="20" height="70" as="geometry" />
        </mxCell>
        <mxCell id="3Br_ud49PPdMieKtLJ-I-38" style="edgeStyle=orthogonalEdgeStyle;rounded=0;orthogonalLoop=1;jettySize=auto;html=1;entryX=0.1;entryY=0.5;entryDx=0;entryDy=0;entryPerimeter=0;" edge="1" parent="1" source="3Br_ud49PPdMieKtLJ-I-15" target="3Br_ud49PPdMieKtLJ-I-36">
          <mxGeometry relative="1" as="geometry" />
        </mxCell>
        <mxCell id="3Br_ud49PPdMieKtLJ-I-40" value="" style="group" vertex="1" connectable="0" parent="1">
          <mxGeometry x="540" y="507" width="160" height="77.5" as="geometry" />
        </mxCell>
        <mxCell id="3Br_ud49PPdMieKtLJ-I-41" value="" style="group;fillColor=#e1d5e7;strokeColor=#9673a6;" vertex="1" connectable="0" parent="3Br_ud49PPdMieKtLJ-I-40">
          <mxGeometry width="160" height="77.5" as="geometry" />
        </mxCell>
        <mxCell id="3Br_ud49PPdMieKtLJ-I-42" value="&lt;b&gt;metrics&lt;/b&gt;" style="text;html=1;align=center;verticalAlign=middle;whiteSpace=wrap;rounded=0;" vertex="1" parent="3Br_ud49PPdMieKtLJ-I-41">
          <mxGeometry x="53.33333333333337" width="53.33333333333333" height="30" as="geometry" />
        </mxCell>
        <mxCell id="3Br_ud49PPdMieKtLJ-I-43" value="" style="rounded=0;whiteSpace=wrap;html=1;fillColor=none;strokeColor=#56517e;gradientColor=none;" vertex="1" parent="3Br_ud49PPdMieKtLJ-I-41">
          <mxGeometry width="160" height="77.5" as="geometry" />
        </mxCell>
        <mxCell id="3Br_ud49PPdMieKtLJ-I-44" value="&lt;b&gt;__init__(id)&lt;/b&gt;" style="rounded=0;whiteSpace=wrap;html=1;" vertex="1" parent="3Br_ud49PPdMieKtLJ-I-40">
          <mxGeometry x="13.333333333333371" y="30" width="133.33333333333331" height="30" as="geometry" />
        </mxCell>
        <mxCell id="3Br_ud49PPdMieKtLJ-I-47" value="&lt;b&gt;common_dates(dates_a, dates_b)&lt;/b&gt;" style="rounded=0;whiteSpace=wrap;html=1;" vertex="1" parent="1">
          <mxGeometry x="200" y="270" width="220" height="30" as="geometry" />
        </mxCell>
        <mxCell id="3Br_ud49PPdMieKtLJ-I-49" value="Utilise" style="text;html=1;align=center;verticalAlign=middle;whiteSpace=wrap;rounded=0;" vertex="1" parent="1">
          <mxGeometry x="430" y="260" width="60" height="30" as="geometry" />
        </mxCell>
      </root>
    </mxGraphModel>
  </diagram>
</mxfile>
